<?xml version="1.0" encoding="UTF-8" standalone="no"?>
<svg
   xmlns:dc="http://purl.org/dc/elements/1.1/"
   xmlns:cc="http://creativecommons.org/ns#"
   xmlns:rdf="http://www.w3.org/1999/02/22-rdf-syntax-ns#"
   xmlns:svg="http://www.w3.org/2000/svg"
   xmlns="http://www.w3.org/2000/svg"
   xmlns:sodipodi="http://sodipodi.sourceforge.net/DTD/sodipodi-0.dtd"
   xmlns:inkscape="http://www.inkscape.org/namespaces/inkscape"
   width="122.14703mm"
   height="122.14703mm"
   viewBox="0 0 122.14703 122.14703"
   version="1.1"
   id="svg8"
   sodipodi:docname="image-depot.svg"
   inkscape:version="1.0beta1 (fe3e306, 2019-09-17)">
  <defs
     id="defs2" />
  <sodipodi:namedview
     id="base"
     pagecolor="#ffffff"
     bordercolor="#666666"
     borderopacity="1.0"
     inkscape:pageopacity="0.0"
     inkscape:pageshadow="2"
     inkscape:zoom="0.98994949"
     inkscape:cx="87.005055"
     inkscape:cy="224.21619"
     inkscape:document-units="mm"
     inkscape:current-layer="layer1"
     inkscape:document-rotation="0"
     showgrid="false"
     showguides="true"
     inkscape:guide-bbox="true"
     inkscape:window-width="1500"
     inkscape:window-height="948"
     inkscape:window-x="-6"
     inkscape:window-y="-6"
     inkscape:window-maximized="1"
     fit-margin-top="0"
     fit-margin-left="0"
     fit-margin-right="0"
     fit-margin-bottom="0" />
  <metadata
     id="metadata5">
    <rdf:RDF>
      <cc:Work
         rdf:about="">
        <dc:format>image/svg+xml</dc:format>
        <dc:type
           rdf:resource="http://purl.org/dc/dcmitype/StillImage" />
        <dc:title></dc:title>
      </cc:Work>
    </rdf:RDF>
  </metadata>
  <g
     inkscape:label="Layer 1"
     inkscape:groupmode="layer"
     id="layer1"
     transform="translate(-38.711947,-78.021474)">
    <path
       style="color:#000000;font-style:normal;font-variant:normal;font-weight:normal;font-stretch:normal;font-size:medium;line-height:normal;font-family:sans-serif;font-variant-ligatures:normal;font-variant-position:normal;font-variant-caps:normal;font-variant-numeric:normal;font-variant-alternates:normal;font-feature-settings:normal;text-indent:0;text-align:start;text-decoration:none;text-decoration-line:none;text-decoration-style:solid;text-decoration-color:#000000;letter-spacing:normal;word-spacing:normal;text-transform:none;writing-mode:lr-tb;direction:ltr;text-orientation:mixed;dominant-baseline:auto;baseline-shift:baseline;text-anchor:start;white-space:normal;shape-padding:0;clip-rule:nonzero;display:inline;overflow:visible;visibility:visible;opacity:0.95;isolation:auto;mix-blend-mode:normal;color-interpolation:sRGB;color-interpolation-filters:linearRGB;solid-color:#000000;solid-opacity:1;vector-effect:none;fill:#ffffff;fill-opacity:1;fill-rule:evenodd;stroke:none;stroke-width:2.24027;stroke-linecap:butt;stroke-linejoin:miter;stroke-miterlimit:4;stroke-dasharray:none;stroke-dashoffset:0;stroke-opacity:1;color-rendering:auto;image-rendering:auto;shape-rendering:auto;text-rendering:auto;enable-background:accumulate;stop-opacity:1"
       d="m 17.249688,293.21706 v 99.85203 h 2.240271 v -99.85203 z"
       id="path4155-3"
       inkscape:connector-curvature="0" />
    <text
       xml:space="preserve"
       style="font-style:normal;font-weight:normal;font-size:1.07533px;line-height:0%;font-family:sans-serif;letter-spacing:0px;word-spacing:0px;opacity:0.95;fill:#ffffff;fill-opacity:1;stroke:none;stroke-width:0.0896108px;stroke-linecap:butt;stroke-linejoin:miter;stroke-opacity:1;stop-opacity:1"
       x="33.717716"
       y="362.01218"
       id="text4161-8-1"
       inkscape:export-xdpi="5.0792928"
       inkscape:export-ydpi="5.0792928"><tspan
         sodipodi:role="line"
         id="tspan4163-6-5"
         x="33.717716"
         y="362.01218"
         style="font-style:normal;font-variant:normal;font-weight:normal;font-stretch:normal;font-size:18.361px;line-height:1.25;font-family:'Open Sans';-inkscape-font-specification:'Open Sans';fill:#ffffff;fill-opacity:1;stroke-width:0.0896108px">THE SKY IS NOT THE LIMIT.</tspan></text>
    <circle
       style="opacity:0.95;fill:none;fill-opacity:1;stroke:none;stroke-width:0.1;stroke-miterlimit:4;stroke-dasharray:none;stroke-dashoffset:0"
       id="path890"
       cx="-55.200962"
       cy="-162.04175"
       r="49.616692"
       transform="rotate(163.15654)" />
    <circle
       transform="matrix(-0.8863257,0.46306237,0.46306237,0.8863257,0,0)"
       r="55.847034"
       cy="169.49068"
       cx="-24.032873"
       id="circle918"
       style="opacity:0.95;fill:none;fill-opacity:1;stroke:none;stroke-width:0.1;stroke-miterlimit:4;stroke-dasharray:none;stroke-dashoffset:0" />
    <g
       style="font-style:normal;font-weight:normal;font-size:0.529167px;line-height:0%;font-family:sans-serif;letter-spacing:0px;word-spacing:0px;opacity:0.95;fill:#ececec;fill-opacity:1;stroke:none;stroke-width:0.0325814px;stroke-linecap:butt;stroke-linejoin:miter;stroke-opacity:1;stop-opacity:1"
       id="text4161-8"
       aria-label="SOCIETY OF AERONAUTICS AND ROCKETRY">
      <path
         id="path54"
         style="font-style:normal;font-variant:normal;font-weight:bold;font-stretch:normal;font-size:8.81944px;line-height:1.25;font-family:'Open Sans';-inkscape-font-specification:'Open Sans Bold';letter-spacing:0px;fill:#ececec;fill-opacity:1;stroke-width:0.0325814px"
         d="m 49.448016,149.53919 q 0.827041,-0.20744 1.453037,0.27043 0.624948,0.47369 0.891063,1.53464 0.245161,0.97742 0.06617,1.82147 l -1.202969,0.30174 q 0.120621,-0.68734 0.126534,-1.14168 0.0049,-0.45852 -0.08419,-0.81356 -0.106865,-0.42605 -0.326343,-0.61075 -0.220525,-0.18888 -0.542153,-0.1082 -0.17961,0.0451 -0.292305,0.17987 -0.116873,0.13587 -0.197117,0.36467 -0.08129,0.22462 -0.215506,0.89317 -0.122758,0.62572 -0.294827,0.96634 -0.172069,0.34062 -0.451788,0.58837 -0.27972,0.24776 -0.709948,0.35567 -0.810334,0.20325 -1.411226,-0.22764 -0.601941,-0.43506 -0.845006,-1.40412 -0.119438,-0.47618 -0.114572,-0.93469 0.0038,-0.4627 0.0901,-0.98603 l 1.111421,0.1652 q -0.07791,0.539 -0.0766,0.88053 2.62e-4,0.33736 0.07779,0.64645 0.0922,0.36758 0.312695,0.52094 0.220497,0.15336 0.496178,0.0842 0.171256,-0.043 0.280836,-0.15479 0.105403,-0.1108 0.18358,-0.31244 0.07295,-0.20477 0.219655,-0.92973 0.194566,-0.95895 0.528462,-1.38012 0.329718,-0.42013 0.927026,-0.56995 z" />
      <path
         id="path56"
         style="font-style:normal;font-variant:normal;font-weight:bold;font-stretch:normal;font-size:8.81944px;line-height:1.25;font-family:'Open Sans';-inkscape-font-specification:'Open Sans Bold';letter-spacing:0px;fill:#ececec;fill-opacity:1;stroke-width:0.0325814px"
         d="m 47.041222,142.72362 q 1.550743,-0.19705 2.481495,0.46606 0.930751,0.66312 1.11314,2.09851 0.182388,1.4354 -0.552947,2.31022 -0.735336,0.87481 -2.294623,1.07294 -1.559286,0.19813 -2.477222,-0.46661 -0.92275,-0.66847 -1.105682,-2.10814 -0.182931,-1.43967 0.549218,-2.3054 0.731607,-0.87 2.286621,-1.06758 z m 0.579192,4.55824 q 1.046645,-0.13299 1.525892,-0.5976 0.479248,-0.46461 0.378826,-1.25493 -0.201387,-1.58492 -2.307492,-1.31731 -2.110377,0.26816 -1.910076,1.84453 0.100422,0.79032 0.68545,1.12404 0.580756,0.33426 1.6274,0.20127 z" />
      <path
         id="path58"
         style="font-style:normal;font-variant:normal;font-weight:bold;font-stretch:normal;font-size:8.81944px;line-height:1.25;font-family:'Open Sans';-inkscape-font-specification:'Open Sans Bold';letter-spacing:0px;fill:#ececec;fill-opacity:1;stroke-width:0.0325814px"
         d="m 44.881865,138.3214 q -0.0013,0.75361 0.566369,1.16803 0.563399,0.41441 1.575394,0.41621 2.10581,0.004 2.108615,-1.5767 0.0012,-0.66318 -0.32874,-1.60686 l 1.119654,0.002 q 0.321601,0.77571 0.319905,1.73173 -0.0024,1.37372 -0.834857,2.10002 -0.836725,0.7263 -2.395628,0.72353 -0.98185,-0.002 -1.717603,-0.36048 -0.74006,-0.35874 -1.130754,-1.02692 -0.394993,-0.67249 -0.393396,-1.57252 0.0016,-0.91726 0.446826,-1.84234 l 1.084438,0.43256 q -0.168574,0.35283 -0.294093,0.71003 -0.125519,0.35721 -0.12613,0.70172 z" />
      <path
         id="path60"
         style="font-style:normal;font-variant:normal;font-weight:bold;font-stretch:normal;font-size:8.81944px;line-height:1.25;font-family:'Open Sans';-inkscape-font-specification:'Open Sans Bold';letter-spacing:0px;fill:#ececec;fill-opacity:1;stroke-width:0.0325814px"
         d="m 50.289388,135.39257 -6.271257,-0.5566 0.11802,-1.32974 6.271257,0.55659 z" />
      <path
         id="path62"
         style="font-style:normal;font-variant:normal;font-weight:bold;font-stretch:normal;font-size:8.81944px;line-height:1.25;font-family:'Open Sans';-inkscape-font-specification:'Open Sans Bold';letter-spacing:0px;fill:#ececec;fill-opacity:1;stroke-width:0.0325814px"
         d="m 51.178711,128.9019 -0.607245,3.57475 -6.206991,-1.05439 0.607245,-3.57475 1.078369,0.18318 -0.383675,2.25864 1.362821,0.2315 0.356991,-2.10155 1.078369,0.18319 -0.356991,2.10154 1.600572,0.27189 0.383675,-2.25863 z" />
      <path
         id="path64"
         style="font-style:normal;font-variant:normal;font-weight:bold;font-stretch:normal;font-size:8.81944px;line-height:1.25;font-family:'Open Sans';-inkscape-font-specification:'Open Sans Bold';letter-spacing:0px;fill:#ececec;fill-opacity:1;stroke-width:0.0325814px"
         d="m 52.122212,125.27415 -0.355817,1.28668 -4.997305,-1.38195 -0.455675,1.64778 -1.070851,-0.29613 1.267167,-4.58224 1.070851,0.29613 -0.455675,1.64778 z" />
      <path
         id="path66"
         style="font-style:normal;font-variant:normal;font-weight:bold;font-stretch:normal;font-size:8.81944px;line-height:1.25;font-family:'Open Sans';-inkscape-font-specification:'Open Sans Bold';letter-spacing:0px;fill:#ececec;fill-opacity:1;stroke-width:0.0325814px"
         d="m 50.187152,119.51888 -1.927717,-2.17479 0.528965,-1.33753 2.807976,3.35648 2.278603,0.90115 -0.487788,1.2334 -2.238557,-0.8853 -4.384237,0.51211 0.532132,-1.34553 z" />
      <path
         id="path68"
         style="font-style:normal;font-variant:normal;font-weight:bold;font-stretch:normal;font-size:8.81944px;line-height:1.25;font-family:'Open Sans';-inkscape-font-specification:'Open Sans Bold';letter-spacing:0px;fill:#ececec;fill-opacity:1;stroke-width:0.0325814px"
         d="m 56.312722,109.02489 q 1.334171,0.81462 1.646927,1.91381 0.312755,1.09918 -0.441281,2.33411 -0.754035,1.23494 -1.874686,1.4589 -1.120651,0.22396 -2.462172,-0.59515 -1.341522,-0.81912 -1.643251,-1.91157 -0.30316,-1.09837 0.453119,-2.33698 0.75628,-1.23861 1.868767,-1.45747 1.114731,-0.22253 2.452577,0.59435 z m -2.394511,3.92165 q 0.900473,0.54982 1.564929,0.48628 0.664456,-0.0635 1.079624,-0.74349 0.832581,-1.36357 -0.979392,-2.46994 -1.815648,-1.10861 -2.64374,0.24761 -0.415169,0.67995 -0.166694,1.30596 0.244799,0.62376 1.145273,1.17358 z" />
      <path
         id="path70"
         style="font-style:normal;font-variant:normal;font-weight:bold;font-stretch:normal;font-size:8.81944px;line-height:1.25;font-family:'Open Sans';-inkscape-font-specification:'Open Sans Bold';letter-spacing:0px;fill:#ececec;fill-opacity:1;stroke-width:0.0325814px"
         d="m 60.638668,108.60218 -0.812784,1.03176 -4.945643,-3.89604 2.233157,-2.83478 0.85923,0.67688 -1.420374,1.80303 1.275313,1.00465 1.321774,-1.67786 0.855846,0.67421 -1.321773,1.67786 z" />
      <path
         id="path72"
         style="font-style:normal;font-variant:normal;font-weight:bold;font-stretch:normal;font-size:8.81944px;line-height:1.25;font-family:'Open Sans';-inkscape-font-specification:'Open Sans Bold';letter-spacing:0px;fill:#ececec;fill-opacity:1;stroke-width:0.0325814px"
         d="m 67.263238,101.57303 -1.353308,-0.78916 -1.683814,1.55985 0.683574,1.40959 -1.055148,0.97747 -2.666074,-6.147697 1.197309,-1.109164 5.932609,3.121641 z m -2.347988,-1.39397 q -1.848651,-1.064062 -2.090121,-1.204324 -0.238311,-0.143188 -0.36894,-0.233504 0.270348,0.500945 1.255435,2.552848 z" />
      <path
         id="path74"
         style="font-style:normal;font-variant:normal;font-weight:bold;font-stretch:normal;font-size:8.81944px;line-height:1.25;font-family:'Open Sans';-inkscape-font-specification:'Open Sans Bold';letter-spacing:0px;fill:#ececec;fill-opacity:1;stroke-width:0.0325814px"
         d="m 71.895663,97.99665 -2.918216,2.15212 -3.736812,-5.067023 2.918215,-2.152118 0.649214,0.880317 -1.843813,1.35977 0.820463,1.112527 1.715578,-1.2652 0.649213,0.880317 -1.715578,1.2652 0.963597,1.306612 1.843813,-1.35977 z" />
      <path
         id="path76"
         style="font-style:normal;font-variant:normal;font-weight:bold;font-stretch:normal;font-size:8.81944px;line-height:1.25;font-family:'Open Sans';-inkscape-font-specification:'Open Sans Bold';letter-spacing:0px;fill:#ececec;fill-opacity:1;stroke-width:0.0325814px"
         d="m 72.391223,93.56599 0.372395,-0.216265 q 0.54742,-0.317908 0.702126,-0.651766 0.154707,-0.333859 -0.07237,-0.724873 -0.224915,-0.38729 -0.588196,-0.395434 -0.359556,-0.01031 -0.918148,0.314091 l -0.350051,0.203288 z m 0.544986,0.938434 1.213242,2.089134 -1.154423,0.670419 -3.161783,-5.444409 1.586401,-0.921286 q 1.109735,-0.644467 1.877988,-0.547815 0.76609,0.09293 1.244034,0.91592 0.27898,0.480389 0.233007,1.010055 -0.04814,0.525943 -0.408978,1.019351 2.295085,1.122233 2.9789,1.442217 l -1.281037,0.74395 -2.5129,-1.334372 z" />
      <path
         id="path78"
         style="font-style:normal;font-variant:normal;font-weight:bold;font-stretch:normal;font-size:8.81944px;line-height:1.25;font-family:'Open Sans';-inkscape-font-specification:'Open Sans Bold';letter-spacing:0px;fill:#ececec;fill-opacity:1;stroke-width:0.0325814px"
         d="m 82.11953,89.275912 q 0.603538,1.442002 0.212711,2.515907 -0.390828,1.073905 -1.725574,1.632552 -1.334746,0.558647 -2.374003,0.08329 -1.039257,-0.475354 -1.646121,-1.925301 -0.606864,-1.449947 -0.211049,-2.511934 0.398126,-1.067623 1.736844,-1.627933 1.338718,-0.56031 2.368368,-0.0856 1.033622,0.473044 1.638824,1.919019 z m -4.238613,1.774038 q 0.407347,0.973252 0.982953,1.311211 0.575606,0.337959 1.310511,0.03037 1.473782,-0.61684 0.6541,-2.575262 -0.821345,-1.962394 -2.287182,-1.34888 -0.734905,0.307589 -0.900485,0.960434 -0.167244,0.648874 0.240103,1.622126 z" />
      <path
         id="path80"
         style="font-style:normal;font-variant:normal;font-weight:bold;font-stretch:normal;font-size:8.81944px;line-height:1.25;font-family:'Open Sans';-inkscape-font-specification:'Open Sans Bold';letter-spacing:0px;fill:#ececec;fill-opacity:1;stroke-width:0.0325814px"
         d="m 90.000619,90.370479 -1.641842,0.427987 -3.85169,-3.917965 -0.0375,0.0098 q 0.39745,1.200325 0.533232,1.721214 l 0.747349,2.866974 -1.154291,0.300895 -1.588115,-6.09232 1.629341,-0.424728 3.835574,3.873212 0.02917,-0.0076 q -0.372091,-1.171333 -0.50027,-1.663052 l -0.751694,-2.883643 1.162625,-0.303067 z" />
      <path
         id="path82"
         style="font-style:normal;font-variant:normal;font-weight:bold;font-stretch:normal;font-size:8.81944px;line-height:1.25;font-family:'Open Sans';-inkscape-font-specification:'Open Sans Bold';letter-spacing:0px;fill:#ececec;fill-opacity:1;stroke-width:0.0325814px"
         d="m 95.391268,89.637408 -0.635618,-1.431855 -2.278202,0.279582 -0.270535,1.543059 -1.427616,0.175198 1.435507,-6.545339 1.619961,-0.198803 2.984119,6.00296 z M 94.30297,87.133051 q -0.876432,-1.944636 -0.990165,-2.199677 -0.109459,-0.255564 -0.162537,-0.405243 -0.07391,0.564421 -0.475806,2.804772 z" />
      <path
         id="path84"
         style="font-style:normal;font-variant:normal;font-weight:bold;font-stretch:normal;font-size:8.81944px;line-height:1.25;font-family:'Open Sans';-inkscape-font-specification:'Open Sans Bold';letter-spacing:0px;fill:#ececec;fill-opacity:1;stroke-width:0.0325814px"
         d="m 102.78401,83.189391 -0.0291,4.07372 q -0.005,0.697614 -0.32309,1.220732 -0.3138,0.52315 -0.90576,0.798845 -0.59195,0.275694 -1.39722,0.269944 -1.214366,-0.0087 -1.881715,-0.633568 -0.667317,-0.629203 -0.6596,-1.710074 l 0.02896,-4.056494 1.330634,0.0095 -0.02752,3.854101 q -0.0052,0.727757 0.2852,1.070042 0.290396,0.342285 0.966476,0.347112 0.65455,0.0047 0.94981,-0.33343 0.29959,-0.342379 0.30482,-1.074442 l 0.0275,-3.845488 z" />
      <path
         id="path86"
         style="font-style:normal;font-variant:normal;font-weight:bold;font-stretch:normal;font-size:8.81944px;line-height:1.25;font-family:'Open Sans';-inkscape-font-specification:'Open Sans Bold';letter-spacing:0px;fill:#ececec;fill-opacity:1;stroke-width:0.0325814px"
         d="m 106.68766,89.944393 -1.32427,-0.16869 0.65516,-5.143305 -1.69592,-0.216032 0.14039,-1.102137 4.71612,0.600753 -0.14039,1.102137 -1.69592,-0.216032 z" />
      <path
         id="path88"
         style="font-style:normal;font-variant:normal;font-weight:bold;font-stretch:normal;font-size:8.81944px;line-height:1.25;font-family:'Open Sans';-inkscape-font-specification:'Open Sans Bold';letter-spacing:0px;fill:#ececec;fill-opacity:1;stroke-width:0.0325814px"
         d="m 109.33732,90.391904 1.30065,-6.160095 1.30618,0.275788 -1.30065,6.160095 z" />
      <path
         id="path90"
         style="font-style:normal;font-variant:normal;font-weight:bold;font-stretch:normal;font-size:8.81944px;line-height:1.25;font-family:'Open Sans';-inkscape-font-specification:'Open Sans Bold';letter-spacing:0px;fill:#ececec;fill-opacity:1;stroke-width:0.0325814px"
         d="m 116.29139,86.734485 q -0.72124,-0.218514 -1.28171,0.205635 -0.55922,0.420028 -0.85266,1.38855 -0.61059,2.015348 0.90195,2.473604 0.63469,0.192293 1.63342,0.148403 l -0.32465,1.071555 q -0.8355,0.08434 -1.75044,-0.192857 -1.31472,-0.39832 -1.77024,-1.404767 -0.45427,-1.010567 -0.002,-2.502502 0.2847,-0.939671 0.84029,-1.540787 0.55684,-0.605236 1.30928,-0.786739 0.75781,-0.184376 1.61918,0.07659 0.87785,0.265963 1.63533,0.958925 l -0.7268,0.913718 q -0.28925,-0.263123 -0.59512,-0.48628 -0.30586,-0.223158 -0.63557,-0.323051 z" />
      <path
         id="path92"
         style="font-style:normal;font-variant:normal;font-weight:bold;font-stretch:normal;font-size:8.81944px;line-height:1.25;font-family:'Open Sans';-inkscape-font-specification:'Open Sans Bold';letter-spacing:0px;fill:#ececec;fill-opacity:1;stroke-width:0.0325814px"
         d="m 121.64984,92.569132 q -0.33153,0.785567 -1.08977,0.998424 -0.75426,0.214532 -1.76201,-0.210767 -0.9284,-0.39181 -1.49521,-1.042344 l 0.48223,-1.142644 q 0.47668,0.509667 0.83616,0.787579 0.36345,0.279587 0.70068,0.421911 0.40469,0.170789 0.68424,0.106474 0.28351,-0.06264 0.41244,-0.368139 0.072,-0.170604 0.032,-0.341717 -0.0383,-0.175081 -0.17286,-0.376771 -0.1306,-0.200016 -0.58409,-0.709247 -0.42616,-0.474323 -0.59487,-0.816624 -0.16871,-0.342301 -0.19848,-0.714776 -0.0298,-0.372474 0.14269,-0.781128 0.32483,-0.769698 1.03044,-0.990745 0.70957,-0.219373 1.63003,0.169089 0.4523,0.190882 0.81574,0.470468 0.36742,0.281261 0.7337,0.664877 l -0.80028,0.78873 q -0.38383,-0.386346 -0.65752,-0.590657 -0.26971,-0.202638 -0.56331,-0.326544 -0.34914,-0.147347 -0.60426,-0.06338 -0.25513,0.08397 -0.36564,0.345827 -0.0687,0.162668 -0.0452,0.317475 0.0252,0.150839 0.13926,0.334547 0.11975,0.181416 0.61081,0.734544 0.64925,0.732069 0.78501,1.252108 0.13744,0.516071 -0.102,1.083426 z" />
      <path
         id="path94"
         style="font-style:normal;font-variant:normal;font-weight:bold;font-stretch:normal;font-size:8.81944px;line-height:1.25;font-family:'Open Sans';-inkscape-font-specification:'Open Sans Bold';letter-spacing:0px;fill:#ececec;fill-opacity:1;stroke-width:0.0325814px"
         d="m 127.30562,97.7773 0.40148,-1.514275 -1.95096,-1.209174 -1.17748,1.033328 -1.22256,-0.757719 5.21908,-4.202787 1.38727,0.859807 -1.43427,6.548539 z m 0.72046,-2.633844 q 0.53498,-2.064833 0.60609,-2.334878 0.0748,-0.267777 0.12716,-0.417699 -0.41118,0.393661 -2.12785,1.888233 z" />
      <path
         id="path96"
         style="font-style:normal;font-variant:normal;font-weight:bold;font-stretch:normal;font-size:8.81944px;line-height:1.25;font-family:'Open Sans';-inkscape-font-specification:'Open Sans Bold';letter-spacing:0px;fill:#ececec;fill-opacity:1;stroke-width:0.0325814px"
         d="m 133.48138,102.55766 -1.31094,-1.07715 0.90755,-5.418705 -0.03,-0.02461 q -0.73781,1.02683 -1.07955,1.442737 l -1.88091,2.289153 -0.92165,-0.757288 3.99695,-4.864449 1.30095,1.068951 -0.8808,5.379366 0.0233,0.0191 q 0.72925,-0.989278 1.05185,-1.381894 l 1.89185,-2.302462 0.92831,0.762756 z" />
      <path
         id="path98"
         style="font-style:normal;font-variant:normal;font-weight:bold;font-stretch:normal;font-size:8.81944px;line-height:1.25;font-family:'Open Sans';-inkscape-font-specification:'Open Sans Bold';letter-spacing:0px;fill:#ececec;fill-opacity:1;stroke-width:0.0325814px"
         d="m 140.52019,105.32931 q -1.14296,1.05377 -2.35217,0.962 -1.20629,-0.0886 -2.33886,-1.31704 l -1.20847,-1.31077 4.62883,-4.267592 1.33983,1.453242 q 1.045,1.13346 1.02457,2.31204 -0.0204,1.17858 -1.09373,2.16812 z m -0.96525,-0.99613 q 1.49123,-1.37485 0.27692,-2.69195 l -0.48164,-0.5224 -3.01412,2.7789 0.38823,0.42109 q 1.30772,1.41841 2.83061,0.0144 z" />
      <path
         id="path100"
         style="font-style:normal;font-variant:normal;font-weight:bold;font-stretch:normal;font-size:8.81944px;line-height:1.25;font-family:'Open Sans';-inkscape-font-specification:'Open Sans Bold';letter-spacing:0px;fill:#ececec;fill-opacity:1;stroke-width:0.0325814px"
         d="m 143.99079,109.60933 0.23349,0.36184 q 0.34323,0.53191 0.68398,0.67079 0.34075,0.13888 0.72068,-0.10628 0.37632,-0.24283 0.36742,-0.6061 -0.007,-0.35964 -0.35681,-0.90241 l -0.21948,-0.34013 z m -0.91184,0.58839 -2.02994,1.30988 -0.72382,-1.12172 5.29015,-3.41362 0.99466,1.54146 q 0.6958,1.07829 0.63528,1.85023 -0.0569,0.7696 -0.85657,1.28562 -0.46678,0.3012 -0.99802,0.28011 -0.52762,-0.0234 -1.0374,-0.36072 -1.01337,2.34518 -1.30094,3.04325 l -0.8032,-1.24474 1.21506,-2.57271 z" />
      <path
         id="path102"
         style="font-style:normal;font-variant:normal;font-weight:bold;font-stretch:normal;font-size:8.81944px;line-height:1.25;font-family:'Open Sans';-inkscape-font-specification:'Open Sans Bold';letter-spacing:0px;fill:#ececec;fill-opacity:1;stroke-width:0.0325814px"
         d="m 148.73101,119.12771 q -1.41238,0.66993 -2.5033,0.32945 -1.09091,-0.34047 -1.71101,-1.6478 -0.6201,-1.30733 -0.19358,-2.36757 0.42653,-1.06023 1.84669,-1.73385 1.42016,-0.67362 2.49941,-0.32761 1.08497,0.34806 1.70692,1.65928 0.62194,1.31122 0.19562,2.36183 -0.42448,1.0545 -1.84075,1.72627 z m -1.96918,-4.15155 q -0.95326,0.45216 -1.2641,1.04285 -0.31083,0.5907 0.0306,1.31051 0.68469,1.44351 2.60288,0.53366 1.92209,-0.91169 1.24109,-2.34742 -0.34143,-0.71981 -1.00127,-0.85486 -0.65594,-0.13689 -1.6092,0.31526 z" />
      <path
         id="path104"
         style="font-style:normal;font-variant:normal;font-weight:bold;font-stretch:normal;font-size:8.81944px;line-height:1.25;font-family:'Open Sans';-inkscape-font-specification:'Open Sans Bold';letter-spacing:0px;fill:#ececec;fill-opacity:1;stroke-width:0.0325814px"
         d="m 152.15426,122.63003 q -0.23441,-0.71622 -0.90325,-0.93231 -0.66474,-0.21742 -1.62653,0.0974 -2.00135,0.65503 -1.50974,2.15707 0.20628,0.63028 0.81478,1.42344 l -1.06411,0.34828 q -0.54807,-0.63623 -0.84544,-1.54482 -0.42731,-1.30558 0.1362,-2.25578 0.56761,-0.95154 2.04918,-1.43645 0.93315,-0.30541 1.74419,-0.19477 0.81513,0.1093 1.39519,0.62177 0.5855,0.51523 0.86546,1.37062 0.28532,0.87175 0.15177,1.88966 l -1.16533,-0.0717 q 0.0498,-0.38784 0.0573,-0.76638 0.008,-0.37855 -0.0997,-0.70597 z" />
      <path
         id="path106"
         style="font-style:normal;font-variant:normal;font-weight:bold;font-stretch:normal;font-size:8.81944px;line-height:1.25;font-family:'Open Sans';-inkscape-font-specification:'Open Sans Bold';letter-spacing:0px;fill:#ececec;fill-opacity:1;stroke-width:0.0325814px"
         d="m 148.99412,132.05501 -0.30432,-1.48498 2.26759,-2.14832 -0.50982,-0.47139 -2.20215,0.4513 -0.26801,-1.30779 6.16772,-1.26398 0.26801,1.3078 -2.8223,0.57838 0.83109,0.36598 2.43905,1.24092 0.29741,1.45123 -3.17042,-1.59217 z" />
      <path
         id="path108"
         style="font-style:normal;font-variant:normal;font-weight:bold;font-stretch:normal;font-size:8.81944px;line-height:1.25;font-family:'Open Sans';-inkscape-font-specification:'Open Sans Bold';letter-spacing:0px;fill:#ececec;fill-opacity:1;stroke-width:0.0325814px"
         d="m 149.38251,136.46289 -0.33763,-3.61021 6.26856,-0.58625 0.33763,3.61021 -1.08907,0.10185 -0.21332,-2.28103 -1.37634,0.12872 0.19849,2.12239 -1.08907,0.10185 -0.19848,-2.12239 -1.61645,0.15117 0.21332,2.28103 z" />
      <path
         id="path110"
         style="font-style:normal;font-variant:normal;font-weight:bold;font-stretch:normal;font-size:8.81944px;line-height:1.25;font-family:'Open Sans';-inkscape-font-specification:'Open Sans Bold';letter-spacing:0px;fill:#ececec;fill-opacity:1;stroke-width:0.0325814px"
         d="m 149.40773,140.21123 0.0118,-1.33493 5.18466,0.0458 0.0151,-1.70956 1.111,0.01 -0.042,4.75404 -1.111,-0.01 0.0151,-1.70956 z" />
      <path
         id="path112"
         style="font-style:normal;font-variant:normal;font-weight:bold;font-stretch:normal;font-size:8.81944px;line-height:1.25;font-family:'Open Sans';-inkscape-font-specification:'Open Sans Bold';letter-spacing:0px;fill:#ececec;fill-opacity:1;stroke-width:0.0325814px"
         d="m 152.63168,144.64344 -0.0515,0.42755 q -0.0757,0.6285 0.0978,0.95301 0.17346,0.3245 0.62239,0.37856 0.44465,0.0535 0.66984,-0.23165 0.22467,-0.28091 0.30189,-0.92223 l 0.0484,-0.40189 z m -1.07742,-0.12973 -2.39855,-0.2888 0.15959,-1.3254 6.25076,0.75263 -0.2193,1.82136 q -0.15341,1.27409 -0.69306,1.82938 -0.53536,0.55579 -1.48025,0.44202 -0.55153,-0.0664 -0.94681,-0.42196 -0.391,-0.35504 -0.56778,-0.94019 -2.27769,1.15711 -2.94484,1.51053 l 0.17709,-1.47077 2.57821,-1.20334 z" />
      <path
         id="path114"
         style="font-style:normal;font-variant:normal;font-weight:bold;font-stretch:normal;font-size:8.81944px;line-height:1.25;font-family:'Open Sans';-inkscape-font-specification:'Open Sans Bold';letter-spacing:0px;fill:#ececec;fill-opacity:1;stroke-width:0.0325814px"
         d="m 151.66675,151.43458 2.21642,1.87972 -0.33411,1.39898 -3.25523,-2.92476 -2.3833,-0.56919 0.3081,-1.29008 2.34142,0.55919 4.26744,-1.12816 -0.33611,1.40736 z" />
    </g>
    <path
       inkscape:connector-curvature="0"
       style="color:#000000;font-style:normal;font-variant:normal;font-weight:normal;font-stretch:normal;font-size:medium;line-height:normal;font-family:sans-serif;font-variant-ligatures:normal;font-variant-position:normal;font-variant-caps:normal;font-variant-numeric:normal;font-variant-alternates:normal;font-variant-east-asian:normal;font-feature-settings:normal;font-variation-settings:normal;text-indent:0;text-align:start;text-decoration:none;text-decoration-line:none;text-decoration-style:solid;text-decoration-color:#000000;letter-spacing:normal;word-spacing:normal;text-transform:none;writing-mode:lr-tb;direction:ltr;text-orientation:mixed;dominant-baseline:auto;baseline-shift:baseline;text-anchor:start;white-space:normal;shape-padding:0;shape-margin:0;inline-size:0;clip-rule:nonzero;display:inline;overflow:visible;visibility:visible;opacity:0.95;isolation:auto;mix-blend-mode:normal;color-interpolation:sRGB;color-interpolation-filters:linearRGB;solid-color:#000000;solid-opacity:1;vector-effect:none;fill:#ececec;fill-opacity:1;fill-rule:nonzero;stroke:none;stroke-width:1.0252;stroke-linecap:butt;stroke-linejoin:miter;stroke-miterlimit:4;stroke-dasharray:none;stroke-dashoffset:0;stroke-opacity:1;color-rendering:auto;image-rendering:auto;shape-rendering:auto;text-rendering:auto;enable-background:accumulate;stop-color:#000000;stop-opacity:1"
       d="m 108.66572,184.34713 c 24.98589,-4.90322 41.27511,-29.1465 36.37189,-54.1324 -4.90322,-24.98589 -29.14651,-41.27509 -54.1324,-36.37187 -24.985892,4.903219 -41.2751,29.1465 -36.37188,54.13239 4.903218,24.98589 29.146503,41.2751 54.13239,36.37188 z m -0.19745,-1.00619 c -24.442204,4.79652 -48.132215,-11.12095 -52.92874,-35.56315 -4.796527,-24.4422 11.120933,-48.132206 35.563136,-52.928732 24.442204,-4.796526 48.132214,11.120932 52.928744,35.563132 4.79652,24.4422 -11.12094,48.13221 -35.56314,52.92875 z"
       id="path954" />
    <path
       inkscape:connector-curvature="0"
       style="color:#000000;font-style:normal;font-variant:normal;font-weight:normal;font-stretch:normal;font-size:medium;line-height:normal;font-family:sans-serif;font-variant-ligatures:normal;font-variant-position:normal;font-variant-caps:normal;font-variant-numeric:normal;font-variant-alternates:normal;font-variant-east-asian:normal;font-feature-settings:normal;font-variation-settings:normal;text-indent:0;text-align:start;text-decoration:none;text-decoration-line:none;text-decoration-style:solid;text-decoration-color:#000000;letter-spacing:normal;word-spacing:normal;text-transform:none;writing-mode:lr-tb;direction:ltr;text-orientation:mixed;dominant-baseline:auto;baseline-shift:baseline;text-anchor:start;white-space:normal;shape-padding:0;shape-margin:0;inline-size:0;clip-rule:nonzero;display:inline;overflow:visible;visibility:visible;opacity:0.95;isolation:auto;mix-blend-mode:normal;color-interpolation:sRGB;color-interpolation-filters:linearRGB;solid-color:#000000;solid-opacity:1;vector-effect:none;fill:#ececec;fill-opacity:1;fill-rule:nonzero;stroke:none;stroke-width:1.0252;stroke-linecap:butt;stroke-linejoin:miter;stroke-miterlimit:4;stroke-dasharray:none;stroke-dashoffset:0;stroke-opacity:1;color-rendering:auto;image-rendering:auto;shape-rendering:auto;text-rendering:auto;enable-background:accumulate;stop-color:#000000;stop-opacity:1"
       d="m 111.54407,199.01464 c 33.08711,-6.493 54.65404,-38.59113 48.16104,-71.67825 -6.493,-33.087116 -38.59113,-54.654041 -71.678245,-48.161045 -33.087117,6.493 -54.654045,38.591135 -48.161046,71.678245 6.492999,33.08712 38.591132,54.65405 71.678251,48.16105 z m -0.19708,-1.00429 C 78.80356,204.39666 47.258324,183.19956 40.872018,150.65614 34.485713,118.11271 55.680893,86.567851 88.224321,80.181545 c 32.543429,-6.386303 64.090199,14.808499 70.476519,47.351925 6.3863,32.54343 -14.81043,64.09058 -47.35385,70.47688 z"
       id="path958" />
    <g
       style="font-style:normal;font-weight:normal;font-size:0.529167px;line-height:0%;font-family:sans-serif;letter-spacing:0px;word-spacing:0px;opacity:0.95;fill:#ececec;fill-opacity:1;stroke:none;stroke-width:0.0325814px;stroke-linecap:butt;stroke-linejoin:miter;stroke-opacity:1;stop-opacity:1"
       id="text924"
       aria-label="THE SKY IS NOT THE LIMIT">
      <path
         id="path117"
         style="font-size:8.46667px;letter-spacing:0.264583px;fill:#ececec"
         d="m 57.551057,166.76124 -1.107132,-1.90037 -4.690194,2.73245 -0.412053,-0.70728 4.690195,-2.73245 -1.107132,-1.90037 0.628693,-0.36627 2.626316,4.50802 z" />
      <path
         id="path119"
         style="font-size:8.46667px;letter-spacing:0.264583px;fill:#ececec"
         d="m 56.272765,174.1987 -0.485919,-0.65872 2.425297,-1.78907 -1.823422,-2.47187 -2.425296,1.78906 -0.485919,-0.65872 4.953727,-3.65421 0.485918,0.65873 -1.942899,1.43321 1.823422,2.47187 1.942899,-1.43321 0.485919,0.65872 z" />
      <path
         id="path121"
         style="font-size:8.46667px;letter-spacing:0.264583px;fill:#ececec"
         d="m 60.27241,178.6446 -2.752037,-2.97891 4.521509,-4.17715 2.752038,2.97891 -0.534443,0.49374 -2.19658,-2.37766 -1.238937,1.14457 2.196581,2.37767 -0.534443,0.49374 -2.196581,-2.37767 -1.679244,1.55136 2.19658,2.37766 z" />
      <path
         id="path123"
         style="font-size:8.46667px;letter-spacing:0.264583px;fill:#ececec"
         d="m 68.433059,183.2523 q -0.220875,0.28386 -0.570445,0.4571 -0.346306,0.17578 -0.734275,0.18295 -0.423502,0.006 -0.864011,-0.14848 -0.437246,-0.15165 -0.926657,-0.53247 -0.5253,-0.40875 -0.870029,-0.83413 -0.341466,-0.42285 -0.625621,-0.95301 l 0.629621,-0.80916 0.04568,0.0355 q 0.130042,0.59358 0.483448,1.13573 0.353406,0.54214 0.777562,0.87218 0.600343,0.46714 1.108319,0.50097 0.511238,0.0364 0.8032,-0.33885 0.25134,-0.32301 0.21079,-0.60076 -0.03729,-0.27521 -0.29429,-0.61138 -0.193929,-0.25567 -0.448046,-0.5215 -0.250853,-0.26329 -0.519825,-0.57734 -0.539393,-0.63972 -0.596197,-1.21298 -0.051,-0.57399 0.362821,-1.10581 0.474755,-0.61013 1.292383,-0.59727 0.820168,0.01 1.613012,0.62653 0.51225,0.39859 0.863504,0.82905 0.351254,0.43047 0.569084,0.83045 l -0.594078,0.76348 -0.04568,-0.0356 q -0.09454,-0.45071 -0.428736,-0.95695 -0.328395,-0.50697 -0.801491,-0.87509 -0.518775,-0.40367 -1.002821,-0.43459 -0.480783,-0.0284 -0.744818,0.31094 -0.236107,0.30343 -0.214052,0.59822 0.02205,0.29479 0.345759,0.69334 0.173272,0.20816 0.507499,0.57299 0.334227,0.36483 0.548457,0.64153 0.429907,0.565 0.478023,1.06864 0.04812,0.50365 -0.35809,1.02568 z" />
      <path
         id="path125"
         style="font-size:8.46667px;letter-spacing:0.264583px;fill:#ececec"
         d="m 72.878183,188.12187 -0.904763,-0.557 -0.636647,-3.61061 -0.863463,0.23548 -1.094482,1.77784 -0.697055,-0.42912 3.227098,-5.24199 0.697055,0.42912 -1.683986,2.73541 4.229291,-1.16846 0.844915,0.52015 -3.858222,1.02309 z" />
      <path
         id="path127"
         style="font-size:8.46667px;letter-spacing:0.264583px;fill:#ececec"
         d="m 80.543213,184.98343 -3.449714,2.17647 -1.169525,2.43309 -0.737752,-0.35462 1.131914,-2.35485 -0.424995,-4.13526 0.815998,0.39223 0.323681,3.21046 2.724203,-1.74542 z" />
      <path
         id="path129"
         style="font-size:8.46667px;letter-spacing:0.264583px;fill:#ececec"
         d="m 84.039436,192.69011 -2.316892,-0.7356 0.190153,-0.59892 0.768357,0.24395 1.482443,-4.66925 -0.768357,-0.24395 0.190153,-0.59892 2.316891,0.73559 -0.190153,0.59893 -0.768357,-0.24395 -1.482442,4.66925 0.768357,0.24394 z" />
      <path
         id="path131"
         style="font-size:8.46667px;letter-spacing:0.264583px;fill:#ececec"
         d="m 90.388034,192.41944 q -0.07828,0.35104 -0.320201,0.65713 -0.237883,0.30698 -0.585526,0.47936 -0.380388,0.18626 -0.844526,0.23524 -0.460104,0.0499 -1.065355,-0.0851 -0.649636,-0.14487 -1.143158,-0.38199 -0.489487,-0.23623 -0.973055,-0.59396 l 0.22315,-1.00069 0.05649,0.0126 q 0.371375,0.48097 0.922666,0.81992 0.551292,0.33896 1.075842,0.45593 0.742442,0.16557 1.216098,-0.0211 0.477692,-0.18574 0.581169,-0.64976 0.08908,-0.39947 -0.06634,-0.6332 -0.15139,-0.23284 -0.527461,-0.42683 -0.284629,-0.14818 -0.628013,-0.27982 -0.339348,-0.13074 -0.716783,-0.29962 -0.761139,-0.34763 -1.057621,-0.84155 -0.291546,-0.49705 -0.144879,-1.15475 0.168262,-0.75455 0.912869,-1.09255 0.745507,-0.34203 1.726014,-0.12338 0.633496,0.14127 1.135088,0.38019 0.501592,0.23893 0.869536,0.50735 l -0.210552,0.94419 -0.05649,-0.0126 q -0.27819,-0.367 -0.796766,-0.68172 -0.513641,-0.31785 -1.098717,-0.44832 -0.641566,-0.14307 -1.092348,0.036 -0.446747,0.17993 -0.540326,0.59957 -0.08368,0.37526 0.06231,0.6323 0.145991,0.25705 0.609032,0.4789 0.245643,0.11408 0.703778,0.30096 0.458135,0.18687 0.77011,0.34539 0.63022,0.32691 0.889079,0.76161 0.258858,0.4347 0.114891,1.0803 z" />
      <path
         id="path133"
         style="font-size:8.46667px;letter-spacing:0.264583px;fill:#ececec"
         d="m 99.479891,195.00228 -1.011666,-0.0492 -2.648019,-5.64179 -0.267228,5.50015 -0.76391,-0.0371 0.298725,-6.14845 1.267679,0.0616 2.415278,5.15036 0.243956,-5.02116 0.76391,0.0371 z" />
      <path
         id="path135"
         style="font-size:8.46667px;letter-spacing:0.264583px;fill:#ececec"
         d="m 105.57578,189.2228 q 0.40466,0.38561 0.64523,0.96942 0.2447,0.58352 0.2988,1.34227 0.0541,0.75875 -0.10914,1.37551 -0.15943,0.61234 -0.49791,1.0385 -0.34967,0.44354 -0.85426,0.6909 -0.50046,0.24706 -1.16436,0.2944 -0.64742,0.0462 -1.19466,-0.13033 -0.54311,-0.17679 -0.94335,-0.55857 -0.40024,-0.38178 -0.64464,-0.96117 -0.24028,-0.57969 -0.29468,-1.34257 -0.0535,-0.7505 0.10208,-1.35842 0.1553,-0.61204 0.50438,-1.06383 0.33407,-0.43 0.85485,-0.68265 0.52491,-0.25295 1.15995,-0.29823 0.65978,-0.047 1.19907,0.13416 0.54312,0.17679 0.93864,0.55061 z m 0.0946,2.37227 q -0.0853,-1.19586 -0.66751,-1.80505 -0.58253,-0.61331 -1.51035,-0.54715 -0.93607,0.0667 -1.42569,0.75652 -0.48578,0.68534 -0.40051,1.8812 0.0862,1.20823 0.67635,1.8127 0.5899,0.60035 1.50535,0.53507 0.91545,-0.0653 1.41007,-0.74296 0.49845,-0.6821 0.41229,-1.89033 z" />
      <path
         id="path137"
         style="font-size:8.46667px;letter-spacing:0.264583px;fill:#ececec"
         d="m 111.42727,188.23518 -2.16327,0.39671 0.97911,5.33906 -0.80512,0.14765 -0.97912,-5.33906 -2.16328,0.39672 -0.13124,-0.71567 5.13168,-0.94108 z" />
      <path
         id="path139"
         style="font-size:8.46667px;letter-spacing:0.264583px;fill:#ececec"
         d="m 118.92716,185.81601 -2.07449,0.73051 1.80294,5.11992 -0.77208,0.27188 -1.80294,-5.11992 -2.07449,0.73051 -0.24167,-0.68629 4.92105,-1.73291 z" />
      <path
         id="path141"
         style="font-size:8.46667px;letter-spacing:0.264583px;fill:#ececec"
         d="m 125.99183,188.46724 -0.73833,0.3534 -1.30116,-2.71841 -2.77063,1.32614 1.30116,2.71842 -0.73833,0.3534 -2.65765,-5.55243 0.73833,-0.3534 1.04236,2.17771 2.77062,-1.32614 -1.04235,-2.17772 0.73833,-0.3534 z" />
      <path
         id="path143"
         style="font-size:8.46667px;letter-spacing:0.264583px;fill:#ececec"
         d="m 131.11645,185.38406 -3.44768,2.13567 -3.24161,-5.23303 3.44769,-2.13567 0.38316,0.61854 -2.75183,1.70462 0.88823,1.4339 2.75183,-1.70462 0.38315,0.61855 -2.75182,1.70462 1.2039,1.94349 2.75182,-1.70461 z" />
      <path
         id="path145"
         style="font-size:8.46667px;letter-spacing:0.264583px;fill:#ececec"
         d="m 137.93032,179.97411 -2.95933,2.53146 -4.00141,-4.67775 0.62202,-0.53209 3.52845,4.12484 2.3373,-1.99937 z" />
      <path
         id="path147"
         style="font-size:8.46667px;letter-spacing:0.264583px;fill:#ececec"
         d="m 140.22007,177.65855 -1.71591,1.72184 -0.4451,-0.44357 0.56905,-0.57101 -3.47004,-3.45808 -0.56905,0.57102 -0.4451,-0.44357 1.7159,-1.72184 0.44511,0.44356 -0.56905,0.57102 3.47004,3.45808 0.56905,-0.57102 z" />
      <path
         id="path149"
         style="font-size:8.46667px;letter-spacing:0.264583px;fill:#ececec"
         d="m 144.85091,172.21563 -0.51615,0.6353 -4.11666,-3.34458 1.72189,3.60415 -0.30761,0.37861 -3.87254,-0.95703 4.11666,3.34458 -0.48227,0.5936 -4.77764,-3.8816 0.70385,-0.86633 3.69487,0.88726 -1.65892,-3.39319 0.71689,-0.88237 z" />
      <path
         id="path151"
         style="font-size:8.46667px;letter-spacing:0.264583px;fill:#ececec"
         d="m 147.10887,168.79183 -1.3346,2.03173 -0.52521,-0.345 0.4426,-0.67379 -4.09456,-2.68963 -0.44259,0.67379 -0.52521,-0.345 1.3346,-2.03173 0.52521,0.345 -0.4426,0.67379 4.09456,2.68963 0.44259,-0.67379 z" />
      <path
         id="path153"
         style="font-size:8.46667px;letter-spacing:0.264583px;fill:#ececec"
         d="m 145.31224,160.92428 -1.05,1.93253 4.76955,2.59144 -0.39079,0.71925 -4.76955,-2.59145 -1.05,1.93252 -0.63933,-0.34736 2.49079,-4.58429 z" />
    </g>
    <g
       style="opacity:0.95;fill:#ececec;stroke-width:0.158188;stop-opacity:1"
       id="g1378"
       transform="matrix(1.5201523,0,0,1.5201523,-61.097021,-91.211579)">
      <path
         id="path10"
         d="m 98.792125,131.44788 c 1.111281,-0.39222 2.229825,-0.73359 3.377425,-0.99507 0.70454,-0.16706 1.40908,-0.30506 2.12088,-0.40675 0.40675,-0.0581 0.81349,-0.10895 1.21297,-0.15979 0.34137,-0.0363 0.69001,-0.0581 1.03139,-0.0944 0.86433,-0.0944 1.72866,-0.0581 2.59299,-0.0508 0.32685,0 0.6537,0.0508 0.98055,0.0872 0.1961,0.0218 0.39221,0.0363 0.58106,0.0654 0.39948,0.0581 0.79896,0.11621 1.19118,0.1961 0.60285,0.13074 1.2057,0.27601 1.78676,0.49391 0.46486,0.17432 0.92244,0.36316 1.38729,0.55927 0.70454,0.2978 1.3655,0.69001 1.99014,1.13307 0.34864,0.24695 0.68275,0.51569 1.0096,0.7917 0.24695,0.20337 0.4939,0.42127 0.71907,0.6537 0.48663,0.50843 0.94422,1.04591 1.35096,1.62697 0.3777,0.55201 0.71907,1.12581 1.0096,1.7214 0.25422,0.5157 0.47938,1.05318 0.67549,1.59792 0.29779,0.82802 0.54475,1.67056 0.73359,2.52763 0.12348,0.58106 0.23243,1.16212 0.33411,1.75045 0.0726,0.40674 0.13074,0.82075 0.18885,1.2275 0.029,0.23968 0.0436,0.47937 0.0654,0.72632 0.029,0.31232 0.0654,0.63191 0.0872,0.94423 0.0145,0.18158 0.029,0.3559 0.0363,0.53748 0.0145,0.38496 0.029,0.76265 0.0363,1.1476 0.007,0.62464 0.007,1.24203 0,1.86667 -0.007,0.38495 -0.0218,0.77717 -0.0363,1.16212 -0.0145,0.33411 -0.0363,0.66822 -0.0654,1.00234 -0.0291,0.39221 -0.0508,0.78443 -0.0944,1.17665 -0.0436,0.44306 -0.10169,0.87886 -0.15253,1.32192 -0.0436,0.38495 -0.0799,0.7699 -0.13074,1.15486 -0.0508,0.41401 -0.12348,0.82075 -0.18159,1.22749 -0.029,0.18885 -0.0653,0.46485 -0.0799,0.55928 -0.0145,0.0944 -0.0363,0.0508 -0.0363,0 0,-0.0508 -0.007,-0.21064 0,-0.31232 0.0145,-0.19611 0.0436,-0.39222 0.0581,-0.58833 0.0145,-0.2179 0.0145,-0.4358 0.029,-0.66096 0.029,-0.36316 0.0581,-0.72633 0.0872,-1.08949 0.0145,-0.21064 0.0218,-0.41401 0.0363,-0.62465 0.0218,-0.34863 0.0508,-0.69001 0.0581,-1.03864 0.007,-0.25422 0,-0.50843 0.007,-0.76991 0.007,-0.34138 0.0291,-0.68275 0.0291,-1.02413 0,-0.47937 -0.0145,-0.95875 -0.0291,-1.44539 -0.007,-0.26148 -0.0145,-0.52296 -0.0291,-0.77717 -0.0218,-0.33411 -0.0363,-0.66822 -0.0654,-1.00233 -0.0363,-0.40675 -0.0799,-0.81349 -0.11621,-1.22024 -0.029,-0.31958 -0.0508,-0.64643 -0.10168,-0.96601 -0.0726,-0.50117 -0.15979,-1.00234 -0.23969,-1.5035 -0.11622,-0.69728 -0.26148,-1.38003 -0.44306,-2.06278 -0.19611,-0.72633 -0.42127,-1.44539 -0.69001,-2.14267 -0.24691,-0.6319 -0.53018,-1.24928 -0.84976,-1.84487 -0.38495,-0.71907 -0.82801,-1.39455 -1.31465,-2.04098 -0.24696,-0.33412 -0.49391,-0.66823 -0.76991,-0.98055 -0.3559,-0.39948 -0.73359,-0.79896 -1.12581,-1.16213 -0.55927,-0.51569 -1.16939,-0.96601 -1.82309,-1.35096 -0.56653,-0.33412 -1.14759,-0.62465 -1.75771,-0.8716 -0.98781,-0.40674 -2.01193,-0.68275 -3.05784,-0.88612 -0.40674,-0.0799 -0.82075,-0.138 -1.2275,-0.18884 -0.28326,-0.0363 -0.56653,-0.0363 -0.84254,-0.0726 -0.69001,-0.0726 -1.38728,-0.0654 -2.08456,-0.0581 -0.31959,0.007 -0.64643,0.0363 -0.96602,0.0581 -0.18884,0.0145 -0.37769,0.0145 -0.5738,0.0363 -0.25421,0.0218 -0.50116,0.0508 -0.75538,0.0872 -0.24695,0.0291 -0.4939,0.0654 -0.73359,0.10168 -0.37769,0.0581 -0.74812,0.12348 -1.12581,0.18159 -0.74812,0.12347 -1.48171,0.29053 -2.215303,0.47211 -0.534458,0.14225 -1.266908,0.32717 -1.503499,0.37766 -0.03055,0.007 -0.03915,0.004 -0.02075,-0.0117 0.04195,-0.0349 0.359171,-0.14199 0.435029,-0.17006 z"
         inkscape:connector-curvature="0"
         style="fill:#ececec;fill-opacity:1;stroke-width:0.041854"
         sodipodi:nodetypes="ccccccccccccccccccccccccccccccczzcccccccsccccccccccccccccccccccccssc" />
      <path
         inkscape:connector-curvature="0"
         id="path18"
         style="fill:#ececec;fill-opacity:1;stroke-width:0.041854"
         d="m 113.94334,141.41311 c -0.13074,0.18158 -0.23243,0.33411 -0.34137,0.47937 -0.0145,0.0218 -0.0363,0.029 -0.0436,0.0508 -0.10169,0.27601 -0.32685,0.24695 -0.54475,0.21064 -0.19611,-0.0291 -0.39222,-0.0799 -0.59559,-0.10895 -0.22516,-0.029 -0.4358,0.007 -0.58106,0.22516 -0.23969,0.3559 -0.48664,0.70454 -0.7336,1.05318 -0.0799,0.11621 -0.17431,0.22516 -0.276,0.34864 -0.10169,-0.23243 -0.19611,-0.44307 -0.29053,-0.6537 -0.0363,-0.0726 -0.0218,-0.13074 0.0218,-0.19611 0.138,-0.18885 0.26874,-0.37769 0.40674,-0.55927 0.0581,-0.0799 0.12348,-0.15253 0.13074,-0.27601 -0.45032,-0.0363 -0.88612,-0.0726 -1.35823,-0.11621 0.0581,0.16706 0.0944,0.30506 0.15252,0.4358 0.34864,0.82801 0.69728,1.64876 1.04592,2.47678 0.0508,0.13074 0.0944,0.26148 0.15253,0.38495 0.0363,0.0799 0.029,0.14527 -0.0145,0.21064 -0.0508,0.0799 -0.10169,0.15253 -0.15979,0.22516 -0.0944,0.13074 -0.18885,0.26148 -0.2978,0.40674 -0.0508,-0.10168 -0.0944,-0.17432 -0.13074,-0.26148 -0.16705,-0.37042 -0.32685,-0.74085 -0.4939,-1.11128 -0.15979,-0.36316 -0.31959,-0.73359 -0.48664,-1.09675 -0.18158,-0.41401 -0.3559,-0.82802 -0.54475,-1.24203 -0.10895,-0.23242 -0.21063,-0.46485 -0.23242,-0.71906 -0.0145,-0.22516 0.0944,-0.47212 0.32684,-0.55201 0.20338,-0.0654 0.41401,-0.0654 0.61738,-0.0508 0.18885,0.0145 0.3777,0.0363 0.56654,0.0581 0.29053,0.0291 0.58106,0.0581 0.87886,0.0944 0.22516,0.0218 0.45032,0.0436 0.66822,0.0654 0.26148,0.0291 0.53022,0.0581 0.7917,0.0872 0.10895,0.0145 0.2179,0.0218 0.32685,0.0363 0.16705,0.0145 0.33411,0.0218 0.50116,0.0363 0.17432,0.0218 0.33411,0.0363 0.53749,0.0581 z m -9.43501,6.54422 c -0.007,-0.50843 0.11621,-0.88612 0.34864,-1.22024 0.31232,-0.45032 0.63917,-0.89338 0.98054,-1.32191 0.2978,-0.37043 0.69728,-0.60286 1.16939,-0.69728 0.50843,-0.10169 0.98781,0 1.43087,0.26148 0.47937,0.28327 0.82801,0.69001 1.00959,1.21297 0.0508,0.14526 0.0654,0.30506 0.0872,0.45759 0.0581,0.31958 -0.007,0.62464 -0.12347,0.91517 -0.0726,0.18884 -0.16706,0.37043 -0.28327,0.53748 -0.26874,0.38496 -0.54475,0.77717 -0.84254,1.14034 -0.19611,0.23969 -0.42127,0.46485 -0.71907,0.58832 -0.20337,0.0872 -0.41401,0.13074 -0.6319,0.1598 -0.26148,0.0363 -0.50843,0 -0.74812,-0.0726 -0.58833,-0.1598 -1.05318,-0.50117 -1.3655,-1.02413 -0.2179,-0.33411 -0.31232,-0.69001 -0.31232,-0.93696 z m 0.76264,-0.10895 c 0.007,0.10168 0.007,0.21063 0.029,0.31232 0.0799,0.34864 0.26874,0.6319 0.56654,0.84254 0.51569,0.37043 1.4236,0.45032 1.88845,-0.26148 0.13801,-0.21063 0.29054,-0.40674 0.4358,-0.60285 0.15253,-0.21064 0.31232,-0.41401 0.45759,-0.63191 0.20337,-0.29779 0.24695,-0.6319 0.15979,-0.97328 -0.17432,-0.67548 -0.69727,-1.04591 -1.3655,-1.07496 -0.40674,-0.0145 -0.76264,0.12347 -1.03865,0.42853 -0.13074,0.138 -0.24695,0.29053 -0.3559,0.45032 -0.19611,0.27601 -0.39221,0.54475 -0.56653,0.82802 -0.13074,0.20337 -0.25422,0.414 -0.21064,0.68275 z m 9.2607,-7.29234 c -0.14527,0.20337 -0.27601,0.39222 -0.42128,0.60285 -1.15486,-0.82801 -2.29519,-1.6415 -3.45005,-2.46952 0.0872,-0.13073 0.15979,-0.26147 0.25421,-0.39221 0.33411,-0.48664 0.67548,-0.96602 1.01686,-1.4454 0.28327,-0.39948 0.55201,-0.81348 0.92244,-1.1476 0.32685,-0.29779 0.69727,-0.47937 1.14033,-0.46485 0.45033,0.0145 0.82075,0.2179 1.09676,0.58107 0.31958,0.43579 0.37043,0.90791 0.23242,1.41634 -0.007,0.0218 -0.0145,0.0436 -0.0218,0.0872 0.58106,-0.0363 1.13308,-0.2179 1.75045,-0.24696 -0.0726,0.11622 -0.12347,0.20338 -0.17431,0.27601 -0.13074,0.17432 -0.25422,0.34137 -0.39222,0.50843 -0.029,0.0363 -0.0799,0.0726 -0.12348,0.0799 -0.45032,0.0799 -0.89338,0.16706 -1.35097,0.21064 -0.20337,0.0218 -0.29779,0.13074 -0.39222,0.26148 -0.23242,0.31958 -0.45758,0.63917 -0.68274,0.95875 -0.0218,0.0291 -0.0508,0.0654 -0.0799,0.0944 -0.23243,-0.0654 -0.36317,-0.26874 -0.59559,-0.36316 0.0363,-0.0654 0.0581,-0.13074 0.0944,-0.18158 0.21063,-0.28327 0.42127,-0.56654 0.6319,-0.84981 0.20337,-0.28326 0.44306,-0.54474 0.59559,-0.87159 0.15253,-0.34864 0.0799,-0.77717 -0.2179,-1.03139 -0.25421,-0.2179 -0.64643,-0.21063 -0.9297,0 -0.24695,0.18159 -0.41401,0.4358 -0.5738,0.69002 -0.23969,0.39221 -0.52296,0.76264 -0.80622,1.12581 -0.12348,0.15979 -0.23969,0.32684 -0.36317,0.50116 0.91518,0.72633 1.87393,1.37276 2.83995,2.07004 z m -15.645125,12.79064 c 0.101688,-0.0436 0.188846,-0.0726 0.276005,-0.10894 0.297795,-0.13801 0.588329,-0.27601 0.88612,-0.40675 0.52296,-0.23969 1.03865,-0.47938 1.56161,-0.71906 0.18884,-0.0872 0.37769,-0.17432 0.56654,-0.26874 0.29779,-0.14527 0.59558,-0.29054 0.89338,-0.4358 0.60285,-0.28327 1.20571,-0.5738 1.80856,-0.84981 0.23969,-0.10895 0.4939,-0.17432 0.74812,-0.21063 0.0436,-0.007 0.0944,0 0.15253,0 0,0.0581 0.007,0.10168 0,0.14526 -0.10169,0.46485 -0.23969,0.91518 -0.45033,1.34371 -0.53022,1.08223 -1.06044,2.17172 -1.61245,3.24669 -0.24695,0.47938 -0.52296,0.94423 -0.7917,1.40908 -0.24695,0.42853 -0.50116,0.85706 -0.7699,1.27834 -0.34138,0.53022 -0.69002,1.05317 -1.04592,1.57613 -0.31232,0.45032 -0.6319,0.90065 -0.95875,1.34371 -0.26148,0.3559 -0.537485,0.70454 -0.820754,1.05317 -0.268741,0.34138 -0.544745,0.67549 -0.82075,1.00234 -0.174321,0.20337 -0.348638,0.39948 -0.53022,0.59559 -0.276005,0.31232 -0.559274,0.61737 -0.835279,0.9297 -0.06537,0.0726 -0.138001,0.138 -0.210634,0.21063 -0.428534,0.42853 -0.857069,0.87159 -1.292865,1.29287 -0.28327,0.276 -0.588326,0.54474 -0.893383,0.79896 -0.428535,0.36316 -0.864334,0.71907 -1.307392,1.05318 -0.334112,0.25421 -0.690014,0.47937 -1.038651,0.71906 -0.116214,0.0799 -0.227355,0.16317 -0.355902,0.2179 -0.172383,0.0734 -0.313726,-0.0703 -0.312321,-0.19613 0.0017,-0.15165 0.117956,-0.27428 0.225162,-0.38495 0.117983,-0.12179 0.239689,-0.23243 0.355902,-0.3559 0.305057,-0.33411 0.610117,-0.66822 0.907909,-1.00234 0.268743,-0.30505 0.544748,-0.61737 0.806227,-0.9297 0.276005,-0.32684 0.544745,-0.66095 0.806224,-0.99507 0.428532,-0.54474 0.857067,-1.08949 1.271076,-1.6415 0.508429,-0.66822 1.002332,-1.34371 1.496235,-2.01919 0.588326,-0.79897 1.111284,-1.63424 1.619713,-2.48405 0.15253,-0.26147 0.290533,-0.53022 0.428535,-0.79896 0.17432,-0.33411 0.348637,-0.66822 0.501168,-1.0096 0.19611,-0.42853 0.37769,-0.87159 0.55927,-1.30739 0.007,-0.0218 0.007,-0.0436 0.007,-0.0726 -0.0436,-0.007 -0.0872,-0.0145 -0.12348,-0.007 -0.47938,0.0872 -0.951487,0.17432 -1.430864,0.26148 -0.668224,0.13074 -1.336444,0.25422 -2.004667,0.38496 -0.508429,0.10168 -1.016861,0.21063 -1.52529,0.31958 l -2.026457,0.45759 c -0.406745,0.0944 -0.813489,0.21063 -1.227495,0.29779 -0.276005,0.0581 -0.559274,0.0944 -0.864331,0.0799 0.01453,-0.0726 0.01453,-0.138 0.03632,-0.18885 0.05806,-0.15249 0.152482,-0.29049 0.275957,-0.39217 0.384954,-0.30506 0.719066,-0.66822 1.074965,-1.01686 0.283269,-0.27601 0.5738,-0.55201 0.864331,-0.83528 0.348638,-0.33411 0.690014,-0.67549 1.038651,-1.00233 0.203373,-0.19611 0.435797,-0.36317 0.646433,-0.54475 0.196108,-0.16706 0.39948,-0.31958 0.581062,-0.50117 0.515693,-0.50116 1.024125,-1.00959 1.52529,-1.52529 0.363166,-0.37042 0.719065,-0.75538 1.074967,-1.13307 0.217899,-0.23969 0.443061,-0.47938 0.653695,-0.71907 0.203372,-0.22516 0.399483,-0.46485 0.602855,-0.69001 l 0.544738,-0.61011 c 0.19611,-0.22517 0.38496,-0.44306 0.5738,-0.66823 0.17432,-0.21063 0.34864,-0.42853 0.52296,-0.64643 0.26874,-0.33411 0.54475,-0.66096 0.80622,-0.99507 0.41029,-0.56742 0.80942,-1.07519 1.17666,-1.5834 -0.17432,0.0145 -0.31892,0.0314 -0.45759,0.0363 -0.40497,0.0143 -0.7118,0.0145 -1.04592,-0.14527 -0.34743,-0.16933 0.044,-0.46499 0.21791,-0.60285 0.29779,-0.20337 0.60285,-0.38495 0.89338,-0.59558 0.31959,-0.23243 0.63191,-0.47938 0.93696,-0.74086 0.31232,-0.26148 0.61738,-0.52296 0.90065,-0.81349 0.44306,-0.45759 0.85707,-0.93696 1.20571,-1.47445 0.21063,-0.31958 0.38495,-0.66096 0.53022,-1.01686 0.0581,-0.15252 0.0872,-0.31232 0.138,-0.46485 0.0436,-0.12347 0.0944,-0.24695 0.14526,-0.37042 0.0145,-0.0363 0.0436,-0.0726 0.0654,-0.10169 0.0654,-0.0726 0.15614,-0.14161 0.25422,-0.10895 0.0981,0.0327 0.16705,0.18158 0.14526,0.29779 -0.0654,0.32685 -0.11621,0.66096 -0.21063,0.98055 -0.15979,0.55201 -0.34138,1.09675 -0.53748,1.63424 -0.2179,0.58832 -0.45033,1.17665 -0.69728,1.75771 -0.29053,0.66823 -0.60285,1.32918 -0.9297,1.98288 -0.39222,0.7917 -0.83528,1.56161 -1.30013,2.31699 -0.31958,0.50843 -0.63191,1.02412 -0.97328,1.51802 -0.53748,0.77718 -1.08949,1.53256 -1.64877,2.2952 -0.28326,0.38496 -0.57379,0.75538 -0.87159,1.11855 -0.23243,0.29053 -0.486637,0.5738 -0.726325,0.85707 -0.225163,0.276 -0.450323,0.55927 -0.675485,0.83528 0.0073,-0.0145 0.01453,0.007 0.01453,0.0436 z"
         sodipodi:nodetypes="cccccccccccccccccccccccccccccccccccccccccccccccccccccccccccccccccccccccccccccccccccccccccccccccccccccccccccccccccccccsssccccccccccccccccccccccccccccccccccscccccccccczccccccccccccc" />
      <path
         inkscape:connector-curvature="0"
         id="path28"
         style="fill:#ececec;fill-opacity:1;stroke-width:0.041854"
         d="m 107.98745,146.03982 c 0.276,0.0872 0.47937,0.34137 0.50116,0.63191 0.007,0.138 0.0145,0.28326 -0.0145,0.414 -0.0436,0.20337 -0.15252,0.37043 -0.34137,0.48664 -0.31232,0.19611 -0.63191,0.38496 -0.94423,0.58106 -0.28326,0.18159 -0.56653,0.35591 -0.8498,0.54475 -0.0872,0.0581 -0.17432,0.0726 -0.25422,0.007 -0.11621,-0.10168 -0.22516,-0.2179 -0.32685,-0.33411 -0.0436,-0.0508 -0.0145,-0.10895 0.0363,-0.15253 0.61738,-0.53022 1.17666,-1.11854 1.75046,-1.69234 0.15979,-0.15253 0.29779,-0.32685 0.44306,-0.48664 z m 4.39428,-5.69442 c 0.28327,0.20338 0.55201,0.39948 0.84254,0.61012 -0.40674,0.0654 -0.77717,-0.0654 -1.16938,-0.0436 0.0508,-0.23243 0.21063,-0.37769 0.32684,-0.56654 z m -2.2153,5.5201 c -0.0291,0.21064 -0.22516,0.23969 -0.31958,0.37043 -0.0799,-0.16706 -0.14527,-0.31959 -0.22517,-0.47212 -0.12347,-0.25421 -0.29779,-0.47937 -0.50116,-0.67548 -0.11621,-0.11621 -0.12348,-0.14527 -0.0218,-0.27601 0.11621,-0.14526 0.24695,-0.29053 0.37769,-0.44306 0.29053,0.47212 0.43579,1.01686 0.69001,1.49624 z m 4.95356,-15.24564 c 0.21064,-0.0872 0.39222,-0.16705 0.58107,-0.24695 0.79896,-0.34137 1.62697,-0.59559 2.45498,-0.87159 0.4358,-0.14527 0.8716,-0.27601 1.3074,-0.41401 0.1961,-0.0581 0.29053,0.007 0.29053,0.2179 0,0.12347 -0.0145,0.23969 -0.029,0.36316 -0.0363,0.33411 -0.0726,0.67549 -0.11622,1.0096 -0.0799,0.56653 -0.16705,1.14034 -0.25421,1.70687 -0.0508,0.2978 -0.10895,0.60286 -0.16706,0.90065 -0.007,0.029 -0.0291,0.0508 -0.0508,0.0872 -0.25422,-0.22516 -0.48664,-0.45033 -0.74086,-0.66096 -0.32684,-0.26874 -0.65369,-0.53022 -0.9878,-0.78444 -0.44306,-0.32684 -0.91518,-0.61011 -1.40182,-0.86433 -0.29053,-0.138 -0.5738,-0.28326 -0.88612,-0.44306 z m 0.323,2.4634 c -0.18158,0.10169 -0.45374,0.25307 -0.64258,0.36202 -0.45759,0.26148 -0.91518,0.52296 -1.35824,0.79896 -0.47938,0.2978 -0.95149,0.59559 -1.40907,0.91518 -0.6537,0.46485 -1.30013,0.94422 -1.9393,1.43087 -0.40675,0.31232 -0.80623,0.6319 -1.20571,0.95875 -0.19611,0.15979 -0.37043,0.34864 -0.55927,0.52295 -0.12348,0.11622 -0.24695,0.23243 -0.40675,0.2978 -0.0218,0.007 -0.0436,0.0145 -0.0726,0.0218 0.0513,-0.25625 0.0747,-0.46081 -0.0363,-0.74086 -0.11097,-0.28005 -0.5738,-0.50117 -0.92243,-0.32685 -0.16706,0.0799 -0.26148,0.23243 -0.31232,0.39948 -0.0581,0.18159 -0.11621,0.36317 -0.15253,0.54475 -0.0872,0.39948 -0.26874,0.74812 -0.47938,1.08949 -0.24695,0.39222 -0.52296,0.76265 -0.84254,1.09676 -0.21064,0.2179 -0.40674,0.45032 -0.62464,0.6537 -0.31959,0.29053 -0.64643,0.5738 -0.98055,0.8498 -0.36316,0.29053 -0.74085,0.5738 -1.11854,0.84981 -0.15253,0.10894 -0.31959,0.18884 -0.47938,0.28326 -0.22516,0.13801 -0.42127,0.31232 -0.47938,0.58833 -0.0508,0.2179 0.0218,0.44306 0.20338,0.56654 0.10894,0.0726 0.23242,0.13074 0.36316,0.20337 -0.0654,0.0872 -0.12348,0.17432 -0.18885,0.25421 -0.84238,1.09048 -1.60619,2.00468 -2.302458,3.02879 -0.09442,0.13074 -0.203373,0.25422 -0.312322,0.37043 -0.11621,0.11621 -0.276205,0.12868 -0.435796,0.14527 0,0 -2.228652,0.2265 -2.375095,0.24692 -0.146443,0.0204 -0.360223,0.072 -0.527028,0.2512 -0.166805,0.17923 -1.258978,1.41489 -1.855328,2.04399 -0.363167,0.38496 -0.719066,0.78444 -1.082232,1.17666 -0.232424,0.25421 -0.457587,0.50116 -0.690011,0.75538 -0.348638,0.38495 -0.70454,0.76991 -1.053177,1.1476 -0.305057,0.33411 -0.617378,0.67548 -0.922438,1.01686 -0.319583,0.34863 -0.639168,0.70454 -0.958754,1.05317 -0.152527,0.16706 -0.305057,0.33411 -0.464848,0.49391 -0.06537,0.0654 -0.167056,0.0944 -0.254218,0.12347 -0.07263,0.0218 -0.130736,-0.0218 -0.159791,-0.10168 -0.03632,-0.10169 -0.05084,-0.20338 -0.01453,-0.30506 0.05084,-0.11621 0.101684,-0.23243 0.159791,-0.34864 0.319586,-0.54475 0.646433,-1.08223 0.958754,-1.62697 0.370428,-0.64644 0.72633,-1.29287 1.082229,-1.9393 0.276005,-0.50117 0.544748,-1.0096 0.820753,-1.51077 0.276005,-0.50116 0.566536,-0.99506 0.849805,-1.48897 0.297793,-0.53022 0.602852,-1.05317 0.900648,-1.5834 0.261476,-0.45032 0.522955,-0.90064 0.784433,-1.35097 0.225163,-0.39948 0.450323,-0.79896 0.675485,-1.19117 0.290909,-0.5366 0.575839,-1.04984 0.811476,-1.44445 0.09078,-0.15203 0.162323,-0.17872 0.298599,-0.20429 0.586808,-0.11011 1.134278,-0.2034 1.722603,-0.30509 0.261479,-0.0436 0.522958,-0.0726 0.784437,-0.10169 0.232425,-0.029 0.47999,-0.0472 0.686997,-0.0771 0.207008,-0.0298 0.305218,-0.0778 0.438811,-0.23526 0.133593,-0.15742 0.355902,-0.50116 0.544748,-0.74085 0.174317,-0.22517 0.363167,-0.4358 0.544747,-0.6537 0.26874,-0.31232 0.54474,-0.63191 0.82075,-0.94423 l 0.0218,-0.0218 c 0.56654,-0.58106 1.13307,-1.16212 1.70688,-1.73593 0.26874,-0.26874 0.54474,-0.51569 0.82801,-0.7699 0.37043,-0.32685 0.74812,-0.63917 1.11128,-0.96602 0.84981,-0.74085 1.74319,-1.4236 2.64384,-2.09909 0.28327,-0.2179 0.58832,-0.41401 0.87886,-0.61738 0.69727,-0.4939 1.41634,-0.93696 2.14266,-1.38002 0.28327,-0.16706 0.5738,-0.32685 0.86433,-0.48665 0.34864,-0.18884 0.69728,-0.37042 1.04592,-0.55927 0.13074,-0.0726 0.24695,-0.0872 0.39222,-0.0218 0.63916,0.276 1.27107,0.55927 1.86666,0.92243 0.2581,0.12354 0.52154,0.30089 0.66432,0.41525 z m -4.11443,11.73633 c -0.11621,-0.26874 -0.2179,-0.50843 -0.32685,-0.76991 0.29053,-0.39948 0.58106,-0.81349 0.87886,-1.2275 0.0799,-0.10895 0.16705,-0.21789 0.24695,-0.33411 0.0436,-0.0581 0.0872,-0.0872 0.15979,-0.0799 0.20337,0.0218 0.39948,0.0508 0.59559,0.0726 0.15979,0.0218 0.31232,0.0508 0.47938,0.0291 0.15979,-0.0218 0.28326,-0.0944 0.37769,-0.2179 0.16705,-0.22516 0.32684,-0.46485 0.48664,-0.69727 0.18158,-0.26875 0.3559,-0.54475 0.55201,-0.7917 0.19611,-0.24695 0.0872,-0.46485 -0.10169,-0.58833 -0.14526,-0.0872 -0.29053,-0.16705 -0.4358,-0.25421 -0.0726,-0.0436 -0.138,-0.10169 -0.21789,-0.15253 0.0508,-0.0726 0.0872,-0.12348 0.13074,-0.18158 0.24695,-0.34864 0.50116,-0.69002 0.75538,-1.03865 0.029,-0.0436 0.0872,-0.0799 0.138,-0.0872 0.24695,-0.0436 0.50117,-0.0872 0.74811,-0.12348 0.18159,-0.029 0.37043,-0.0363 0.55202,-0.0654 0.20337,-0.029 0.36316,-0.13074 0.47937,-0.30506 0.14527,-0.21789 0.2978,-0.42853 0.44306,-0.63917 0.029,-0.0508 0.0581,-0.10168 0.0799,-0.15252 0.12348,-0.27601 -0.007,-0.49391 -0.31232,-0.49391 -0.15253,0 -0.31232,0.0218 -0.46485,0.0508 -0.2179,0.0436 -0.42853,0.10168 -0.63917,0.14526 -0.0508,0.0145 -0.10168,0.0145 -0.16705,0.0218 -0.0436,-0.50843 -0.11622,-0.99507 -0.46485,-1.41634 0.276,-0.60285 0.67415,-1.20013 0.95742,-1.83203 0.43466,0.30735 0.88089,0.7931 1.22156,1.15654 0.27601,0.2978 0.53022,0.61012 0.7917,0.91518 0.0654,0.0726 0.12348,0.15252 0.18159,0.23242 0.14526,0.17432 0.0944,0.37043 0.0363,0.55927 -0.10169,0.32685 -0.21064,0.64644 -0.30506,0.97329 -0.26148,0.91517 -0.53748,1.83034 -0.86433,2.72373 -0.26874,0.74085 -0.54475,1.47444 -0.84255,2.20077 -0.21063,0.53022 -0.45032,1.05318 -0.69001,1.56887 -0.32684,0.69001 -0.65369,1.38729 -1.00233,2.06278 -0.32685,0.6319 -0.68275,1.24928 -1.02412,1.87392 -0.53022,0.95876 -1.11129,1.88119 -1.7214,2.7891 -0.3559,0.53022 -0.72633,1.05318 -1.10402,1.57614 -0.138,0.18884 -0.27832,0.39527 -0.43278,0.61649 -0.22782,0.32628 -0.19839,0.65176 -0.18458,1.08312 -0.005,0.96608 0.0104,1.85732 0.029,2.75278 0.007,0.28327 -0.0872,0.52296 -0.2978,0.73359 -0.29779,0.29054 -0.61738,0.55928 -0.94422,0.82075 -0.13801,0.10895 -0.26148,0.23243 -0.38496,0.34864 -0.20337,0.18885 -0.40674,0.38495 -0.60285,0.5738 -0.39222,0.37043 -0.78444,0.74086 -1.17665,1.11129 -0.16706,0.15252 -0.32685,0.30505 -0.49391,0.46484 -0.42853,0.40675 -0.85706,0.81349 -1.2856,1.22024 -0.17432,0.16705 -0.34864,0.32684 -0.51569,0.48664 -0.41401,0.39221 -0.82075,0.78443 -1.23476,1.16939 -0.31232,0.29053 -0.62464,0.58832 -0.93697,0.87885 -0.34863,0.31959 -0.70453,0.63917 -1.05317,0.95876 -0.26148,0.23969 -0.50843,0.48664 -0.76991,0.73359 -0.18885,0.18158 -0.37021,0.36436 -0.56654,0.53022 -0.207109,0.17497 -0.403646,0.10633 -0.457584,-0.0145 -0.106954,-0.2396 0.07974,-0.47949 0.217898,-0.67548 0.174156,-0.24707 0.355906,-0.47938 0.522956,-0.73359 0.67549,-1.0096 1.34371,-2.02646 2.01919,-3.03606 0.8716,-1.30739 1.74319,-2.60752 2.61479,-3.90765 0.19611,-0.29779 0.38633,-0.56409 0.58833,-0.90064 0.0436,-0.0726 0.0634,-0.13774 0.0654,-0.22517 0.006,-0.2675 0,-0.48663 0,-0.73359 -0.007,-0.47211 -0.0145,-0.95149 -0.0363,-1.4236 -0.0145,-0.2978 -0.0363,-0.59559 -0.0654,-0.89339 -0.0218,-0.23242 0.0726,-0.39948 0.22516,-0.55927 0.52295,-0.55201 1.00959,-1.13307 1.45992,-1.73592 0.47211,-0.63917 0.95875,-1.27834 1.40908,-1.93204 0.62464,-0.89338 1.24202,-1.79403 1.84487,-2.7092 0.47938,-0.7336 0.9297,-1.48171 1.37276,-2.22983 0.2978,-0.50117 0.5738,-1.01686 0.85707,-1.52529 0.0436,-0.0726 0.0726,-0.15253 0.0944,-0.24695 -0.0508,0.0581 -0.0944,0.10895 -0.15253,0.16705 -0.29779,0.2978 -0.59559,0.58833 -0.88612,0.88612 -0.10169,0.10169 -0.18885,0.2179 -0.29053,0.31959 -0.0218,0.0581 -0.0944,0.0872 -0.15979,0.12347 z"
         sodipodi:nodetypes="cccccccccccccccccccccccccccccsccccccccccccccccccczcccccccccccccccszzccccccccccccccccccsscczzccccscccccccccccccccccccscccccccccccscccccccccccccccccsccccccccccccccssscccssccccccccccccccc" />
    </g>
    <g
       style="font-style:normal;font-weight:normal;font-size:0.385176px;line-height:0%;font-family:sans-serif;letter-spacing:0px;word-spacing:0px;opacity:0.95;fill:#ececec;fill-opacity:1;stroke:none;stroke-width:0.0325814px;stroke-linecap:butt;stroke-linejoin:miter;stroke-opacity:1;stop-opacity:1"
       id="text936"
       aria-label="EST. 2013">
      <path
         id="path156"
         style="font-style:normal;font-variant:normal;font-weight:bold;font-stretch:normal;font-size:8.21709px;font-family:'Open Sans';-inkscape-font-specification:'Open Sans Bold';fill:#ececec;stroke-width:0.0325814px"
         d="m 85.128952,173.09216 h -3.378315 v -5.86591 h 3.378315 v 1.01911 h -2.134518 v 1.28794 h 1.986065 v 1.01911 h -1.986065 v 1.51262 h 2.134518 z" />
      <path
         id="path158"
         style="font-style:normal;font-variant:normal;font-weight:bold;font-stretch:normal;font-size:8.21709px;font-family:'Open Sans';-inkscape-font-specification:'Open Sans Bold';fill:#ececec;stroke-width:0.0325814px"
         d="m 89.819273,171.46319 q 0,0.79442 -0.573752,1.25182 -0.56974,0.4574 -1.588851,0.4574 -0.938867,0 -1.661072,-0.35308 v -1.15553 q 0.593813,0.26481 1.003063,0.37314 0.413261,0.10833 0.754303,0.10833 0.409249,0 0.625911,-0.15648 0.220674,-0.15647 0.220674,-0.46542 0,-0.17252 -0.09629,-0.30493 -0.09629,-0.13641 -0.28487,-0.26079 -0.184564,-0.12438 -0.758316,-0.39722 -0.537641,-0.25277 -0.806462,-0.48548 -0.268821,-0.23271 -0.429311,-0.54165 -0.16049,-0.30895 -0.16049,-0.72221 0,-0.77838 0.525605,-1.22374 0.529617,-0.44535 1.460459,-0.44535 0.457397,0 0.870659,0.10833 0.417274,0.10833 0.870658,0.30493 l -0.401225,0.96695 q -0.469433,-0.19259 -0.778377,-0.26882 -0.304931,-0.0762 -0.601837,-0.0762 -0.353078,0 -0.541654,0.1645 -0.188576,0.1645 -0.188576,0.42931 0,0.1645 0.07623,0.28888 0.07623,0.12037 0.240735,0.23672 0.168515,0.11235 0.790413,0.40925 0.822512,0.3932 1.127443,0.79042 0.304931,0.3932 0.304931,0.96695 z" />
      <path
         id="path160"
         style="font-style:normal;font-variant:normal;font-weight:bold;font-stretch:normal;font-size:8.21709px;font-family:'Open Sans';-inkscape-font-specification:'Open Sans Bold';fill:#ececec;stroke-width:0.0325814px"
         d="m 93.145429,173.09216 h -1.243798 v -4.83075 h -1.592864 v -1.03516 h 4.429525 v 1.03516 h -1.592863 z" />
      <path
         id="path162"
         style="font-style:normal;font-variant:normal;font-weight:bold;font-stretch:normal;font-size:8.21709px;font-family:'Open Sans';-inkscape-font-specification:'Open Sans Bold';fill:#ececec;stroke-width:0.0325814px"
         d="m 95.380252,172.51841 q 0,-0.33703 0.180552,-0.50955 0.180551,-0.17253 0.525605,-0.17253 0.333016,0 0.513568,0.17654 0.184563,0.17654 0.184563,0.50554 0,0.31697 -0.184563,0.50153 -0.184564,0.18055 -0.513568,0.18055 -0.33703,0 -0.521593,-0.17654 -0.184564,-0.18055 -0.184564,-0.50554 z" />
      <path
         id="path164"
         style="font-style:normal;font-variant:normal;font-weight:bold;font-stretch:normal;font-size:8.21709px;font-family:'Open Sans';-inkscape-font-specification:'Open Sans Bold';fill:#ececec;stroke-width:0.0325814px"
         d="m 103.81802,173.09216 h -4.100525 v -0.86263 l 1.472495,-1.48855 q 0.654,-0.67004 0.85461,-0.92683 0.20061,-0.26079 0.28888,-0.48147 0.0883,-0.22067 0.0883,-0.45739 0,-0.35308 -0.1966,-0.52561 -0.19259,-0.17252 -0.51758,-0.17252 -0.34104,0 -0.66202,0.15647 -0.32098,0.15648 -0.67005,0.44536 l -0.674054,-0.79843 q 0.433324,-0.36913 0.718194,-0.5216 0.28487,-0.15246 0.6219,-0.23271 0.33703,-0.0842 0.7543,-0.0842 0.54968,0 0.97097,0.20061 0.42128,0.20061 0.65399,0.56171 0.23271,0.36111 0.23271,0.82653 0,0.40523 -0.14444,0.76232 -0.14043,0.35308 -0.44135,0.72622 -0.2969,0.37314 -1.05121,1.06325 l -0.7543,0.71017 v 0.0562 h 2.55581 z" />
      <path
         id="path166"
         style="font-style:normal;font-variant:normal;font-weight:bold;font-stretch:normal;font-size:8.21709px;font-family:'Open Sans';-inkscape-font-specification:'Open Sans Bold';fill:#ececec;stroke-width:0.0325814px"
         d="m 108.47223,170.15921 q 0,1.53669 -0.50555,2.27494 -0.50153,0.73826 -1.54873,0.73826 -1.01509,0 -1.53267,-0.76233 -0.51357,-0.76233 -0.51357,-2.25087 0,-1.55274 0.50153,-2.28699 0.50153,-0.73825 1.54471,-0.73825 1.0151,0 1.53268,0.77035 0.5216,0.77035 0.5216,2.25489 z m -2.86876,0 q 0,1.07929 0.18456,1.54873 0.18858,0.46542 0.62992,0.46542 0.43333,0 0.62592,-0.47345 0.19258,-0.47344 0.19258,-1.5407 0,-1.0793 -0.1966,-1.54873 -0.19258,-0.47345 -0.6219,-0.47345 -0.43733,0 -0.62591,0.47345 -0.18857,0.46943 -0.18857,1.54873 z" />
      <path
         id="path168"
         style="font-style:normal;font-variant:normal;font-weight:bold;font-stretch:normal;font-size:8.21709px;font-family:'Open Sans';-inkscape-font-specification:'Open Sans Bold';fill:#ececec;stroke-width:0.0325814px"
         d="m 112.15547,173.09216 h -1.23978 v -3.39436 l 0.012,-0.5577 0.0201,-0.60987 q -0.30895,0.30895 -0.42932,0.40524 l -0.67405,0.54166 -0.59783,-0.74628 1.88977,-1.5046 h 1.01911 z" />
      <path
         id="path170"
         style="font-style:normal;font-variant:normal;font-weight:bold;font-stretch:normal;font-size:8.21709px;font-family:'Open Sans';-inkscape-font-specification:'Open Sans Bold';fill:#ececec;stroke-width:0.0325814px"
         d="m 117.64824,168.53826 q 0,0.54968 -0.33301,0.93485 -0.33302,0.38518 -0.93486,0.52962 v 0.0241 q 0.71017,0.0883 1.07529,0.43333 0.36511,0.34104 0.36511,0.92281 0,0.84659 -0.61387,1.32003 -0.61388,0.46944 -1.75336,0.46944 -0.95491,0 -1.69317,-0.31697 v -1.05522 q 0.34105,0.17253 0.75029,0.28086 0.40925,0.10833 0.81048,0.10833 0.61387,0 0.90677,-0.20864 0.29289,-0.20864 0.29289,-0.67005 0,-0.41326 -0.33703,-0.58578 -0.33703,-0.17253 -1.07528,-0.17253 h -0.44536 v -0.95091 h 0.45338 q 0.68209,0 0.99504,-0.17653 0.31697,-0.18056 0.31697,-0.61388 0,-0.66603 -0.83455,-0.66603 -0.28888,0 -0.5898,0.0963 -0.29691,0.0963 -0.66202,0.33302 l -0.57375,-0.85461 q 0.80245,-0.57776 1.91384,-0.57776 0.91078,0 1.43639,0.36912 0.52961,0.36913 0.52961,1.02714 z" />
    </g>
  </g>
</svg>
